<?xml version="1.0" encoding="utf-8"?>
<!-- Generator: Adobe Illustrator 22.0.0, SVG Export Plug-In . SVG Version: 6.00 Build 0)  -->
<svg version="1.1" id="Layer_1" xmlns="http://www.w3.org/2000/svg" xmlns:xlink="http://www.w3.org/1999/xlink" x="0px" y="0px"
	 viewBox="0 0 143.7 74.5" style="enable-background:new 0 0 143.7 74.5;" xml:space="preserve">
<style type="text/css">
	.st0{fill:#FFFFFF;}
</style>
<rect x="35.7" y="36.8" class="st0" width="107.5" height="37.2"/>
<g>
	<path d="M108.9,0H0v37.3h35.2v37.2h108.5V36.3h-34.8C108.9,36.3,108.9,0,108.9,0z M142.8,37.3v36.2H36.2V37.3h72.7H142.8z"/>
	<path d="M49.5,53.1c0.1,0,0.1,0,0.2,0c1.6,0,3-1.4,2.9-3v-5.3h-2v5.3c0,0.8-0.4,1.2-1.1,1.2s-1.1-0.4-1.1-1.2v-5.3h-2v5.3
		c0,0.1,0,0.1,0,0.2C46.5,51.9,47.9,53.2,49.5,53.1z"/>
	<polygon points="58.6,48.9 61.2,53 63,53 63,44.8 61,44.8 61,48.9 58.4,44.8 56.6,44.8 56.6,53 58.6,53 	"/>
	<rect x="67.1" y="44.8" width="2" height="8.2"/>
	<polygon points="76.6,53 79.4,44.8 77.3,44.8 75.9,49.4 74.5,44.8 72.4,44.8 75.1,53 	"/>
	<polygon points="88.1,51.2 84.5,51.2 84.5,49.8 87.5,49.8 87.5,48 84.5,48 84.5,46.6 88.1,46.6 88.1,44.8 82.5,44.8 82.5,53 
		88.1,53 	"/>
	<path d="M94,49.9h0.6l1.5,3.1v-0.1h2.5l-1.8-3.4c0.8-0.4,1.3-1.2,1.3-2.1v-0.1c-0.1-1.5-1.3-2.6-2.8-2.5H92V53h2V49.9z M94,46.6
		h1.1l0,0c0.5,0,0.9,0.4,0.9,0.9c0,0,0,0,0,0.1c0,0.4-0.4,0.8-0.9,0.7H94V46.6z"/>
	<path d="M104.3,51.3c-0.7,0-1.3-0.2-1.8-0.6l-1.3,1.3c0.8,0.8,2,1.2,3.1,1.1c1.7,0,3.1-1,3.1-2.6c0.1-0.7-0.2-1.3-0.6-1.8
		c-0.4-0.4-1-0.7-1.6-0.7l-1-0.1c-0.2,0-0.4-0.1-0.6-0.2c-0.1-0.1-0.2-0.2-0.2-0.4c0-0.4,0.3-0.8,1-0.8c0.6-0.1,1.2,0.1,1.6,0.5
		l1.4-1.1c-0.8-0.7-1.8-1.1-2.8-1c-1.9,0-3,1.1-3,2.6c0,0.6,0.2,1.2,0.6,1.6c0.4,0.4,1,0.7,1.6,0.7l1,0.1c0.2,0,0.4,0.1,0.5,0.2
		c0.2,0.1,0.2,0.3,0.2,0.5C105.5,51,105.1,51.3,104.3,51.3z"/>
	<rect x="111.2" y="44.8" width="2" height="8.2"/>
	<polygon points="118.8,53 120.8,53 120.8,46.6 122.9,46.6 122.9,44.8 116.8,44.8 116.8,46.6 118.8,46.6 	"/>
	<polygon points="128.1,53 130.1,53 130.1,49.6 132.6,44.8 130.4,44.8 129.1,47.8 127.8,44.8 125.6,44.8 128.1,49.7 	"/>
	<path d="M49.9,57.7h-3.3v8.2h2V63h1.2l0,0c1.5,0.1,2.8-1.2,2.9-2.7v-0.1C52.6,58.7,51.4,57.6,49.9,57.7z M50.6,60.5
		c0,0.4-0.4,0.8-0.9,0.7h-1.1v-1.7h1.1l0,0C50.2,59.5,50.6,59.9,50.6,60.5C50.6,60.4,50.6,60.4,50.6,60.5z"/>
	<path d="M58.2,62.8h0.7l1.5,3.1v-0.1h2.4L61,62.4c0.8-0.4,1.3-1.2,1.3-2.1v-0.1c-0.1-1.5-1.3-2.6-2.8-2.5h-3.3v8.2h2V62.8z
		 M58.3,59.5h1.1c0.5,0,0.9,0.4,0.9,0.9c0,0,0,0,0,0.1c0,0.4-0.4,0.8-0.9,0.7h-1.1V59.5z"/>
	<polygon points="71.7,64.1 68.1,64.1 68.1,62.7 71.1,62.7 71.1,60.9 68.1,60.9 68.1,59.5 71.7,59.5 71.7,57.7 66.1,57.7 66.1,65.9 
		71.7,65.9 	"/>
	<path d="M78.1,59.6c0.6-0.1,1.2,0.1,1.6,0.5l1.3-1.3c-0.8-0.7-1.8-1.1-2.8-1c-1.9,0-3,1.1-3,2.6c0,0.6,0.2,1.2,0.6,1.6
		c0.4,0.4,1,0.7,1.6,0.7l1,0.1c0.2,0,0.4,0.1,0.5,0.2c0.2,0.1,0.2,0.3,0.2,0.5c0,0.4-0.4,0.7-1.2,0.7c-0.7,0-1.3-0.2-1.8-0.6
		l-1.3,1.3c0.8,0.8,2,1.2,3.1,1.1c1.8,0,3.2-0.9,3.2-2.4c0.1-0.7-0.2-1.3-0.6-1.8c-0.4-0.4-1-0.7-1.6-0.7l-1-0.1
		c-0.2,0-0.4-0.1-0.6-0.2c-0.1-0.1-0.2-0.2-0.2-0.4C77.1,60,77.4,59.6,78.1,59.6z"/>
	<path d="M87.4,59.4c0.6-0.1,1.2,0.1,1.6,0.5l1.3-1.1c-0.8-0.7-1.8-1.1-2.8-1c-1.9,0-3,1.1-3,2.6c0,0.6,0.2,1.2,0.6,1.6
		c0.4,0.4,1,0.7,1.6,0.7l1,0.1c0.2,0,0.4,0.1,0.5,0.2c0.2,0.1,0.2,0.3,0.2,0.5c0,0.4-0.4,0.7-1.2,0.7c-0.7,0-1.3-0.2-1.8-0.6
		l-1.3,1.3c0.8,0.8,2,1.2,3.1,1.1c1.7,0,3.2-0.9,3.2-2.6c0.1-0.7-0.2-1.3-0.6-1.8c-0.4-0.4-1-0.7-1.6-0.7l-1-0.1
		c-0.2,0-0.4-0.1-0.6-0.2c-0.1-0.1-0.2-0.2-0.2-0.4C86.4,59.8,86.7,59.4,87.4,59.4z"/>
</g>
<path class="st0" d="M10,29.1V8.7h7.3c1,0,2,0.1,3,0.4c1.1,0.3,2.1,0.8,3,1.6c0.5,0.5,0.9,1.1,1.2,1.8c0.4,0.9,0.5,1.9,0.5,2.9v6.9
	c0,1-0.1,2-0.5,2.9c-0.4,1.2-1.3,2.1-2.3,2.8c-0.9,0.5-1.8,0.8-2.8,0.9c-0.8,0.1-1.5,0.2-2.3,0.2C17.1,29.1,10,29.1,10,29.1z
	 M14.9,25.1h2.3c0.3,0,0.6,0,0.9-0.1c1,0,1.8-0.8,1.9-1.8c0.1-0.4,0.1-0.8,0.1-1.2v-6.3c0-0.5,0-1-0.2-1.5c-0.1-0.6-0.7-1.2-1.3-1.3
	C18.5,13,18.2,13,18,13h-3.1V25.1z"/>
<path class="st0" d="M34.7,8.8h4.9v13.4c0,0.5,0,1,0.1,1.5c0.1,0.8,0.7,1.4,1.5,1.5c0.7,0.2,1.4,0.2,2.1,0c0.8-0.2,1.4-0.8,1.5-1.6
	c0.1-0.5,0.1-0.9,0.1-1.4V8.9h4.9v13.4c0,0.8,0,1.6-0.2,2.4c-0.2,1-0.6,1.9-1.3,2.6c-0.6,0.7-1.4,1.2-2.2,1.5
	c-1.1,0.4-2.3,0.6-3.5,0.6c-1,0-2.1-0.1-3.1-0.3c-0.9-0.2-1.8-0.7-2.6-1.3c-0.6-0.5-1.1-1.1-1.4-1.8c-0.4-0.7-0.6-1.6-0.6-2.4
	c0-0.6-0.1-1.1-0.1-1.7V9.1C34.7,9,34.7,8.9,34.7,8.8z"/>
<path class="st0" d="M61.3,8.8h4.9v6.9l0,0l0.2-0.2c1.5-2.2,3.1-4.3,4.6-6.5c0.1-0.2,0.2-0.2,0.5-0.2h4.9C76.2,9,76,9.1,75.9,9.3
	c-1.8,2.4-3.5,4.8-5.3,7.2c-0.1,0.1-0.1,0.2,0,0.4c0.9,1.8,1.8,3.7,2.7,5.5c1.1,2.2,2.2,4.4,3.2,6.6c0,0.1,0,0.1,0.1,0.2h-5.3
	c-1.4-2.8-2.8-5.7-4.2-8.5c-0.2,0.2-0.3,0.4-0.4,0.6c-0.2,0.3-0.4,0.5-0.6,0.8v7.1h-4.9C61.3,22.3,61.3,15.6,61.3,8.8z"/>
<path class="st0" d="M99,8.8V13h-7.9v3.6H97v4.3h-6v4.2h7.9v4.1H86.1V8.9C90.5,8.8,94.6,8.8,99,8.8z"/>
</svg>
